<svg width="18" height="18" viewBox="0 0 37 24" fill="none" xmlns="http://www.w3.org/2000/svg">
<path d="M19.8243 19.56C18.8843 20.64 17.7243 21.5 16.3443 22.14C14.9643 22.76 13.3743 23.07 11.5743 23.07C9.93434 23.07 8.41434 22.8 7.01434 22.26C5.63434 21.72 4.43434 20.96 3.41434 19.98C2.39434 18.98 1.59434 17.79 1.01434 16.41C0.434336 15.03 0.144336 13.51 0.144336 11.85C0.144336 10.15 0.434336 8.61 1.01434 7.23C1.61434 5.85 2.43434 4.68 3.47434 3.72C4.51434 2.74 5.73434 1.99 7.13434 1.47C8.53434 0.949998 10.0443 0.689998 11.6643 0.689998C13.1643 0.689998 14.6343 0.959998 16.0743 1.5C17.5343 2.02 18.7143 2.79 19.6143 3.81L16.1343 7.29C15.6543 6.63 15.0243 6.14 14.2443 5.82C13.4643 5.5 12.6643 5.34 11.8443 5.34C10.9443 5.34 10.1143 5.51 9.35434 5.85C8.61434 6.17 7.97434 6.62 7.43434 7.2C6.89434 7.78 6.47434 8.47 6.17434 9.27C5.87434 10.05 5.72434 10.91 5.72434 11.85C5.72434 12.81 5.87434 13.69 6.17434 14.49C6.47434 15.29 6.88434 15.98 7.40434 16.56C7.94434 17.12 8.58434 17.56 9.32434 17.88C10.0643 18.2 10.8743 18.36 11.7543 18.36C12.7743 18.36 13.6643 18.16 14.4243 17.76C15.1843 17.36 15.7943 16.84 16.2543 16.2L19.8243 19.56Z" fill="#008080"/>
<path d="M22.023 22.5V1.26H36.303V5.61H26.973V9.6H35.793V13.71H26.973V18.12H36.843V22.5H22.023Z" fill="white"/>
</svg>
