<svg width="16" height="15" viewBox="0 0 16 15" fill="none" xmlns="http://www.w3.org/2000/svg">
<path d="M8.75 6.75H13.9625C13.775 5.375 13.2031 4.20937 12.2469 3.25313C11.2906 2.29688 10.125 1.725 8.75 1.5375V6.75ZM7.25 13.4625V1.5375C5.7375 1.725 4.48438 2.38438 3.49062 3.51562C2.49687 4.64687 2 5.975 2 7.5C2 9.025 2.49687 10.3531 3.49062 11.4844C4.48438 12.6156 5.7375 13.275 7.25 13.4625ZM8.75 13.4625C10.125 13.2875 11.2937 12.7188 12.2563 11.7563C13.2188 10.7937 13.7875 9.625 13.9625 8.25H8.75V13.4625ZM8 15C6.9625 15 5.9875 14.8031 5.075 14.4094C4.1625 14.0156 3.36875 13.4813 2.69375 12.8063C2.01875 12.1313 1.48438 11.3375 1.09063 10.425C0.696875 9.5125 0.5 8.5375 0.5 7.5C0.5 6.4625 0.696875 5.4875 1.09063 4.575C1.48438 3.6625 2.01875 2.86875 2.69375 2.19375C3.36875 1.51875 4.1625 0.984375 5.075 0.590625C5.9875 0.196875 6.9625 0 8 0C9.0375 0 10.0094 0.196875 10.9156 0.590625C11.8219 0.984375 12.6156 1.52188 13.2969 2.20312C13.9781 2.88438 14.5156 3.67813 14.9094 4.58438C15.3031 5.49063 15.5 6.4625 15.5 7.5C15.5 8.525 15.3031 9.49375 14.9094 10.4062C14.5156 11.3188 13.9813 12.1156 13.3063 12.7969C12.6313 13.4781 11.8375 14.0156 10.925 14.4094C10.0125 14.8031 9.0375 15 8 15Z" fill="#1C1B1F"/>
</svg>
