<svg width="16" height="15" viewBox="0 0 16 15" fill="none" xmlns="http://www.w3.org/2000/svg">
<path d="M8 15C6.9625 15 5.9875 14.8031 5.075 14.4094C4.1625 14.0156 3.36875 13.4813 2.69375 12.8063C2.01875 12.1313 1.48438 11.3375 1.09063 10.425C0.696875 9.5125 0.5 8.5375 0.5 7.5C0.5 6.45 0.69375 5.47188 1.08125 4.56563C1.46875 3.65937 2 2.8625 2.675 2.175L8 7.5V0C9.0375 0 10.0125 0.196875 10.925 0.590625C11.8375 0.984375 12.6313 1.51875 13.3063 2.19375C13.9813 2.86875 14.5156 3.6625 14.9094 4.575C15.3031 5.4875 15.5 6.4625 15.5 7.5C15.5 8.5375 15.3031 9.5125 14.9094 10.425C14.5156 11.3375 13.9813 12.1313 13.3063 12.8063C12.6313 13.4813 11.8375 14.0156 10.925 14.4094C10.0125 14.8031 9.0375 15 8 15Z" fill="#1C1B1F"/>
</svg>
