<svg width="42" height="42" viewBox="0 0 42 42" fill="none" xmlns="http://www.w3.org/2000/svg">
<path d="M22.9688 21C22.9688 21.3894 22.8533 21.77 22.637 22.0938C22.4206 22.4175 22.1131 22.6699 21.7534 22.8189C21.3937 22.9679 20.9978 23.0069 20.6159 22.9309C20.234 22.855 19.8832 22.6675 19.6079 22.3921C19.3326 22.1168 19.145 21.766 19.0691 21.3841C18.9931 21.0022 19.0321 20.6063 19.1811 20.2466C19.3301 19.8868 19.5825 19.5794 19.9062 19.363C20.23 19.1467 20.6106 19.0312 21 19.0312C21.5221 19.0313 22.0229 19.2387 22.3921 19.6079C22.7613 19.9771 22.9688 20.4779 22.9688 21ZM32.1562 19.0312C31.7669 19.0312 31.3862 19.1467 31.0625 19.363C30.7387 19.5794 30.4864 19.8868 30.3374 20.2466C30.1884 20.6063 30.1494 21.0022 30.2253 21.3841C30.3013 21.766 30.4888 22.1168 30.7641 22.3921C31.0395 22.6675 31.3903 22.855 31.7722 22.9309C32.1541 23.0069 32.5499 22.9679 32.9097 22.8189C33.2694 22.6699 33.5769 22.4175 33.7932 22.0938C34.0095 21.77 34.125 21.3894 34.125 21C34.125 20.4779 33.9176 19.9771 33.5484 19.6079C33.1792 19.2387 32.6784 19.0313 32.1562 19.0312ZM9.84375 19.0312C9.45437 19.0312 9.07373 19.1467 8.74997 19.363C8.42621 19.5794 8.17387 19.8868 8.02486 20.2466C7.87585 20.6063 7.83687 21.0022 7.91283 21.3841C7.98879 21.766 8.1763 22.1168 8.45163 22.3921C8.72697 22.6675 9.07777 22.855 9.45967 22.9309C9.84157 23.0069 10.2374 22.9679 10.5972 22.8189C10.9569 22.6699 11.2644 22.4175 11.4807 22.0938C11.697 21.77 11.8125 21.3894 11.8125 21C11.8125 20.4779 11.6051 19.9771 11.2359 19.6079C10.8667 19.2387 10.3659 19.0313 9.84375 19.0312Z" fill="#002626"/>
</svg>
