<svg width="49" height="50" viewBox="0 0 49 50" fill="none" xmlns="http://www.w3.org/2000/svg">
<path d="M0 0.5H49V49.5H0V0.5Z" fill="#3A7DCE"/>
<path d="M10.3064 23.555C9.97148 22.7989 9.97148 22.7989 9.97148 22.0524C9.79922 22.0524 9.77051 22.0907 9.6748 22.0524C9.5791 22.0237 9.54082 22.7511 9.225 22.6075C9.17715 22.5405 9.45469 22.0142 9.14844 21.8036C9.05273 21.7271 9.17715 21.2964 9.1293 21.1146C9.1293 21.1146 8.74648 21.3347 8.45938 20.5499C8.32539 20.3489 8.13398 20.7413 8.13398 20.7413C8.13398 20.7413 8.22012 20.9806 8.06699 21.0284C7.84688 20.8562 7.69375 20.9519 7.42578 20.7126C7.14824 20.4733 7.4832 20.1958 6.96641 19.9853C7.30137 19.0474 7.30137 19.2388 8.13398 18.856C7.63633 18.4827 7.63633 18.4827 7.30137 17.9181C6.79414 17.7267 6.63145 17.5448 6.13379 17.1716C5.46387 16.2337 5.12891 14.3579 5.12891 13.0372C5.55 12.597 6.13379 14.5397 6.96641 15.1044L8.13398 15.669C8.80391 16.0519 8.9666 16.4155 9.47383 16.7983L10.9668 17.363C11.6367 17.9181 11.9717 18.6741 12.4693 18.856C13.0148 18.856 13.1201 18.5114 13.2924 18.4827C14.2686 18.4349 14.7758 18.2913 14.9672 17.9563C15.1586 17.6884 15.6371 18.1095 16.977 17.5448L16.8047 16.7983C16.8047 16.7983 17.1684 16.4634 17.6469 16.6069C17.6277 16.2624 17.599 15.3532 18.068 14.9321C17.7809 14.5972 17.9723 14.3579 17.9723 14.3579C17.9723 14.3579 18.2402 14.0708 18.2785 13.9177C18.135 13.0851 18.3934 13.0755 18.4604 12.8362C18.5178 12.5874 18.2307 12.6735 18.3072 12.3386C18.3934 12.0036 18.8814 11.9175 18.9389 11.6399C19.0059 11.372 18.7953 11.2284 18.8145 11.1614C18.9102 10.903 18.824 10.281 18.8145 10.0417C19.7045 9.76416 20.0012 8.95069 20.317 9.28565C20.4797 8.15635 20.652 7.78311 21.6568 7.78311C21.7908 7.43858 21.2836 7.1419 21.4846 7.03662C21.8195 6.98877 22.0684 7.00791 22.4607 7.58213C22.5852 7.76397 22.6043 7.31416 22.7287 7.26631C22.8627 7.21846 23.1594 7.21846 23.2072 6.99834C23.2455 6.76865 23.3125 6.47197 23.4848 6.09873C23.6283 5.79248 23.7336 6.21358 23.8676 6.80694C24.5662 6.83565 26.1549 7.01748 26.8248 7.21846C27.3225 7.37158 27.6574 7.0749 28.1359 7.01748C28.49 7.41943 28.825 7.11318 29.0068 7.97451C29.2748 8.42432 29.7055 8.00322 29.8012 8.14678C30.3658 9.86944 32.2895 8.70186 32.4234 8.73057C32.6723 8.73057 32.9689 9.50576 33.1604 9.49619C33.4762 9.4292 33.39 9.18994 33.658 9.28565C33.591 9.93643 34.2035 10.6925 34.2035 11.171C34.2035 11.171 34.3471 11.2571 34.4906 11.1136C34.6246 10.97 34.749 10.5968 34.8734 10.6063C35.1605 10.6542 35.285 10.7021 35.6199 10.7595C36.5195 11.1136 36.9885 11.1901 37.3426 11.3624C37.4957 11.7069 37.6584 11.8792 37.9934 11.8122C38.2613 12.0228 38.0603 12.2907 38.223 12.3099C38.558 12.1185 38.6729 11.9175 38.9982 12.0993C39.3332 12.2907 39.6682 12.6735 39.8404 13.0372C39.8404 13.2286 39.6682 13.9751 39.8404 15.1044C39.917 15.4872 39.9648 15.7743 40.3189 16.4251C40.2232 17.0855 40.7687 18.1956 40.7687 18.4827C40.7687 18.856 40.5008 19.0569 40.3381 19.4206C41.008 19.9948 40.3381 20.9231 40.0031 21.4878C42.5105 22.0524 41.343 23.1817 43.3432 22.6171C42.8359 23.9282 43.0178 23.823 43.5154 25.1341C42.5201 25.8901 43.4963 26.1198 42.8264 27.0481C42.7881 27.1151 43.2283 27.8712 43.8408 27.8712C43.6781 29.3737 43.1709 28.8091 43.3432 31.0581C42.0225 31.0294 42.5584 32.7425 41.6684 32.5606C41.7258 33.6421 42.1756 33.7282 42.0033 34.8192C41.3334 35.0106 41.3334 35.0106 41.008 35.5657L40.5008 35.3743C40.3381 36.3218 40.0031 36.5036 40.5008 37.4415C40.5008 37.4415 39.8596 37.4702 39.6682 37.4415C39.6586 37.7669 39.9553 37.853 40.0031 38.1976C39.9744 38.3315 39.0461 38.9249 38.3379 38.944C38.1465 39.413 38.8355 39.9011 38.7973 40.1403C38.0125 40.303 37.668 41.3845 37.668 41.3845C37.668 41.3845 38.0699 41.5759 38.0029 41.7673C37.7828 41.5854 37.668 41.5759 37.333 41.5759C37.1703 41.6237 36.7588 41.5663 36.376 42.3032C35.9453 42.4659 35.7443 42.3989 35.4189 42.887C35.2754 42.4276 35.0648 42.887 34.816 43.0784C34.5576 43.2507 34.2227 43.6909 34.1748 43.6718C34.1844 43.5474 34.3279 43.0784 34.3279 43.0784L33.4953 43.2698H33.3996C33.323 43.2794 33.3422 42.7243 33.1891 42.7435C33.0264 42.7722 32.5766 43.4421 32.4234 43.4708C32.2703 43.4899 32.2225 43.2507 32.0885 43.2794C31.9545 43.289 31.6961 43.9876 31.61 44.0067C31.5143 44.0259 31.1314 43.5856 30.8156 43.6431C29.1695 44.2938 28.9111 42.3606 28.6527 43.4517C28.3082 43.2507 28.3656 43.3655 28.0211 43.4708C27.801 43.5378 27.7818 43.1358 27.5809 43.1454C27.1789 43.155 27.198 43.5761 26.9875 43.4517C26.8152 42.5712 25.7434 42.7339 25.6381 42.3511C25.552 41.9683 26.0975 41.9683 26.2793 41.7003C26.4133 41.3175 26.1357 41.1739 26.6908 40.8007C27.399 40.2552 26.9875 40.0542 27.1119 39.6427C27.3416 39.0493 27.3416 38.9058 27.1502 38.3794C27.1502 38.3794 26.5951 36.695 26.4803 36.695C26.1549 36.5897 26.1549 37.3171 25.6668 37.5181C24.6619 37.8913 22.8914 36.561 22.5852 36.561C22.298 36.5706 21.0061 36.9151 21.0539 36.1782C20.8625 36.896 20.1352 36.3505 20.0969 36.3505C19.427 36.3505 19.6854 36.9247 19.2355 36.9056C19.0346 36.829 16.977 36.695 16.977 36.695V37.0778L15.6371 36.3122L14.4695 35.939C13.4742 35.5657 13.9719 34.6278 12.3066 35.1925V34.0632H11.474C11.7994 31.8142 11.474 32.9435 11.3018 30.8763L10.6318 31.0677C9.96191 30.0437 11.5602 30.2446 10.1342 29.5556C10.1342 29.5556 10.1629 28.4358 9.79922 28.8091C9.73223 28.8569 9.97148 29.3737 9.97148 29.3737C8.63164 29.1823 8.29668 28.8091 8.29668 27.3065C8.29668 27.3065 9.39727 27.4884 9.30156 27.3065C9.14844 27.0194 8.93789 25.2011 8.97617 25.0767C8.95703 24.8278 10.0002 24.2058 9.79922 23.6124C9.92363 23.555 10.3064 23.555 10.3064 23.555Z" fill="white"/>
<path d="M44.2383 29.0194C44.1889 29.1398 44.1972 29.2602 44.2466 29.3529C44.3371 29.1954 44.263 29.1306 44.2466 29.0194H44.2383ZM5.05174 15.1826C5.05174 15.1826 4.80476 15.1456 4.85416 15.3957C4.93648 15.2104 5.0435 15.1919 5.05174 15.1826ZM5.02704 14.5899C4.88709 14.5899 4.7142 14.5714 4.78006 14.8214C4.86239 14.627 5.02704 14.5992 5.02704 14.5899ZM6.07256 17.9519C6.07256 17.9519 6.28661 17.9333 6.23721 18.1834C6.15489 17.9982 6.07256 17.9611 6.07256 17.9519Z" stroke="white" stroke-width="0.285123" stroke-linejoin="round"/>
</svg>

