<svg width="33" height="32" viewBox="0 0 33 32" fill="none" xmlns="http://www.w3.org/2000/svg">
<rect x="0.875" width="32" height="32" rx="16" fill="#008080"/>
<path fill-rule="evenodd" clip-rule="evenodd" d="M9.875 16C9.87513 14.6529 10.2639 13.3344 10.9948 12.2028C11.7257 11.0712 12.7675 10.1746 13.9954 9.62039C15.2232 9.06622 16.5849 8.87812 17.917 9.07864C19.2491 9.27916 20.495 9.8598 21.5053 10.7509C22.5156 11.6419 23.2473 12.8056 23.6127 14.1022C23.978 15.3988 23.9614 16.7733 23.565 18.0608C23.1685 19.3482 22.409 20.4939 21.3776 21.3604C20.3461 22.2269 19.0865 22.7774 17.75 22.9457V17.75H19.5C19.7321 17.75 19.9546 17.6578 20.1187 17.4937C20.2828 17.3296 20.375 17.1071 20.375 16.875C20.375 16.6429 20.2828 16.4204 20.1187 16.2563C19.9546 16.0922 19.7321 16 19.5 16H17.75V14.25C17.75 14.0179 17.8422 13.7954 18.0063 13.6313C18.1704 13.4672 18.3929 13.375 18.625 13.375H19.0625C19.2946 13.375 19.5171 13.2828 19.6812 13.1187C19.8453 12.9546 19.9375 12.7321 19.9375 12.5C19.9375 12.2679 19.8453 12.0454 19.6812 11.8813C19.5171 11.7172 19.2946 11.625 19.0625 11.625H18.625C17.9288 11.625 17.2611 11.9016 16.7688 12.3938C16.2766 12.8861 16 13.5538 16 14.25V16H14.25C14.0179 16 13.7954 16.0922 13.6313 16.2563C13.4672 16.4204 13.375 16.6429 13.375 16.875C13.375 17.1071 13.4672 17.3296 13.6313 17.4937C13.7954 17.6578 14.0179 17.75 14.25 17.75H16V22.9457C14.3084 22.7324 12.7527 21.9091 11.625 20.6303C10.4973 19.3515 9.87503 17.705 9.875 16ZM16.875 24.75C21.7076 24.75 25.625 20.8326 25.625 16C25.625 11.1674 21.7076 7.25 16.875 7.25C12.0424 7.25 8.125 11.1674 8.125 16C8.125 20.8326 12.0424 24.75 16.875 24.75Z" fill="white"/>
</svg>
