<svg width="33" height="32" viewBox="0 0 33 32" fill="none" xmlns="http://www.w3.org/2000/svg">
<rect x="0.875" width="32" height="32" rx="16" fill="#008080"/>
<path d="M13.2 6.83325H20.55C23.35 6.83325 25.625 9.21659 25.625 12.1499V19.8499C25.625 21.26 25.0903 22.6123 24.1386 23.6094C23.1868 24.6064 21.896 25.1666 20.55 25.1666H13.2C10.4 25.1666 8.125 22.7833 8.125 19.8499V12.1499C8.125 10.7399 8.65969 9.38754 9.61143 8.39047C10.5632 7.3934 11.854 6.83325 13.2 6.83325ZM13.025 8.66659C12.1896 8.66659 11.3884 9.01426 10.7976 9.63313C10.2069 10.252 9.875 11.0914 9.875 11.9666V20.0333C9.875 21.8574 11.2837 23.3333 13.025 23.3333H20.725C21.5604 23.3333 22.3616 22.9856 22.9524 22.3667C23.5431 21.7478 23.875 20.9085 23.875 20.0333V11.9666C23.875 10.1424 22.4662 8.66659 20.725 8.66659H13.025ZM21.4688 10.0416C21.7588 10.0416 22.037 10.1623 22.2421 10.3772C22.4473 10.5921 22.5625 10.8835 22.5625 11.1874C22.5625 11.4913 22.4473 11.7828 22.2421 11.9976C22.037 12.2125 21.7588 12.3333 21.4688 12.3333C21.1787 12.3333 20.9005 12.2125 20.6954 11.9976C20.4902 11.7828 20.375 11.4913 20.375 11.1874C20.375 10.8835 20.4902 10.5921 20.6954 10.3772C20.9005 10.1623 21.1787 10.0416 21.4688 10.0416ZM16.875 11.4166C18.0353 11.4166 19.1481 11.8995 19.9686 12.759C20.7891 13.6186 21.25 14.7843 21.25 15.9999C21.25 17.2155 20.7891 18.3813 19.9686 19.2408C19.1481 20.1004 18.0353 20.5833 16.875 20.5833C15.7147 20.5833 14.6019 20.1004 13.7814 19.2408C12.9609 18.3813 12.5 17.2155 12.5 15.9999C12.5 14.7843 12.9609 13.6186 13.7814 12.759C14.6019 11.8995 15.7147 11.4166 16.875 11.4166ZM16.875 13.2499C16.1788 13.2499 15.5111 13.5396 15.0188 14.0554C14.5266 14.5711 14.25 15.2706 14.25 15.9999C14.25 16.7293 14.5266 17.4287 15.0188 17.9445C15.5111 18.4602 16.1788 18.7499 16.875 18.7499C17.5712 18.7499 18.2389 18.4602 18.7312 17.9445C19.2234 17.4287 19.5 16.7293 19.5 15.9999C19.5 15.2706 19.2234 14.5711 18.7312 14.0554C18.2389 13.5396 17.5712 13.2499 16.875 13.2499Z" fill="white"/>
</svg>
