<svg width="21" height="20" viewBox="0 0 21 20" fill="none" xmlns="http://www.w3.org/2000/svg">
<path d="M3.26782 6.87502H5.84595C5.98364 7.41278 6.29639 7.88942 6.73489 8.22979C7.1734 8.57017 7.71272 8.75492 8.26782 8.75492C8.82293 8.75492 9.36225 8.57017 9.80075 8.22979C10.2393 7.88942 10.552 7.41278 10.6897 6.87502H17.0178C17.1836 6.87502 17.3426 6.80917 17.4598 6.69196C17.577 6.57475 17.6428 6.41578 17.6428 6.25002C17.6428 6.08426 17.577 5.92529 17.4598 5.80808C17.3426 5.69087 17.1836 5.62502 17.0178 5.62502H10.6897C10.552 5.08726 10.2393 4.61062 9.80075 4.27024C9.36225 3.92987 8.82293 3.74512 8.26782 3.74512C7.71272 3.74512 7.1734 3.92987 6.73489 4.27024C6.29639 4.61062 5.98364 5.08726 5.84595 5.62502H3.26782C3.10206 5.62502 2.94309 5.69087 2.82588 5.80808C2.70867 5.92529 2.64282 6.08426 2.64282 6.25002C2.64282 6.41578 2.70867 6.57475 2.82588 6.69196C2.94309 6.80917 3.10206 6.87502 3.26782 6.87502ZM8.26782 5.00002C8.51505 5.00002 8.75672 5.07333 8.96229 5.21068C9.16785 5.34803 9.32806 5.54326 9.42267 5.77167C9.51728 6.00007 9.54204 6.25141 9.4938 6.49388C9.44557 6.73636 9.32652 6.95909 9.15171 7.1339C8.97689 7.30872 8.75416 7.42777 8.51169 7.476C8.26921 7.52423 8.01788 7.49948 7.78947 7.40487C7.56106 7.31026 7.36584 7.15004 7.22849 6.94448C7.09113 6.73892 7.01782 6.49725 7.01782 6.25002C7.01782 5.9185 7.14952 5.60056 7.38394 5.36614C7.61836 5.13172 7.9363 5.00002 8.26782 5.00002ZM17.0178 13.125H15.6897C15.552 12.5873 15.2393 12.1106 14.8008 11.7702C14.3622 11.4299 13.8229 11.2451 13.2678 11.2451C12.7127 11.2451 12.1734 11.4299 11.7349 11.7702C11.2964 12.1106 10.9836 12.5873 10.8459 13.125H3.26782C3.10206 13.125 2.94309 13.1909 2.82588 13.3081C2.70867 13.4253 2.64282 13.5843 2.64282 13.75C2.64282 13.9158 2.70867 14.0748 2.82588 14.192C2.94309 14.3092 3.10206 14.375 3.26782 14.375H10.8459C10.9836 14.9128 11.2964 15.3894 11.7349 15.7298C12.1734 16.0702 12.7127 16.2549 13.2678 16.2549C13.8229 16.2549 14.3622 16.0702 14.8008 15.7298C15.2393 15.3894 15.552 14.9128 15.6897 14.375H17.0178C17.1836 14.375 17.3426 14.3092 17.4598 14.192C17.577 14.0748 17.6428 13.9158 17.6428 13.75C17.6428 13.5843 17.577 13.4253 17.4598 13.3081C17.3426 13.1909 17.1836 13.125 17.0178 13.125ZM13.2678 15C13.0206 15 12.7789 14.9267 12.5734 14.7894C12.3678 14.652 12.2076 14.4568 12.113 14.2284C12.0184 14 11.9936 13.7486 12.0418 13.5062C12.0901 13.2637 12.2091 13.041 12.3839 12.8661C12.5588 12.6913 12.7815 12.5723 13.024 12.524C13.2664 12.4758 13.5178 12.5006 13.7462 12.5952C13.9746 12.6898 14.1698 12.85 14.3072 13.0556C14.4445 13.2611 14.5178 13.5028 14.5178 13.75C14.5178 14.0815 14.3861 14.3995 14.1517 14.6339C13.9173 14.8683 13.5993 15 13.2678 15Z" fill="#002626"/>
</svg>
