<svg width="33" height="32" viewBox="0 0 33 32" fill="none" xmlns="http://www.w3.org/2000/svg">
<rect x="0.875" width="32" height="32" rx="16" fill="#008080"/>
<g clip-path="url(#clip0_272_25981)">
<path fill-rule="evenodd" clip-rule="evenodd" d="M21.9636 11.6152C21.6548 11.1707 20.8288 10.546 19.4909 10.8155C18.7104 10.9721 18.244 11.358 17.9474 11.8672C17.6315 12.4097 17.4784 13.1474 17.4784 14.0057C17.4784 14.2378 17.3862 14.4604 17.2221 14.6244C17.058 14.7885 16.8354 14.8807 16.6034 14.8807C14.5331 14.8807 12.5626 14.2656 10.9045 12.6022C10.7793 13.2771 10.73 13.9639 10.7575 14.6497C10.8039 15.6 11.0305 16.5529 11.5686 17.3692C12.098 18.1716 12.9686 18.9066 14.4246 19.3686C14.5673 19.4139 14.696 19.495 14.7984 19.6041C14.9007 19.7133 14.9734 19.847 15.0094 19.9922C15.0454 20.1375 15.0435 20.2896 15.0039 20.434C14.9644 20.5783 14.8884 20.7101 14.7834 20.8167C14.317 21.2951 13.7884 21.7086 13.2119 22.0461C14.1394 22.1424 15.0336 22.1494 15.8631 22.0741C17.5431 21.9219 18.881 21.4415 19.7175 20.7616C21.4789 19.3336 22.4213 17.2039 22.2463 13.6356C22.2165 13.0494 22.7826 12.4167 23.0556 11.9364C22.6435 12.0134 22.2305 11.9994 21.9636 11.6152ZM10.3935 9.86086C10.5519 9.84244 10.7124 9.86768 10.8575 9.93384C11.0026 10 11.1269 10.1046 11.2169 10.2362C12.5084 12.1254 14.0589 12.9111 15.78 13.0896C15.864 12.3537 16.0626 11.6266 16.4363 10.9861C16.984 10.0464 17.8748 9.35511 19.147 9.09961C20.9058 8.74611 22.2445 9.38311 23.0206 10.1627L24.5886 9.86961C24.7527 9.83886 24.9222 9.8557 25.077 9.91812C25.2318 9.98055 25.3655 10.086 25.4624 10.2219C25.5593 10.3579 25.6152 10.5187 25.6237 10.6854C25.6321 10.8522 25.5927 11.0178 25.51 11.1629L24.005 13.8071C24.1424 17.623 23.0819 20.2865 20.8209 22.1214C19.6221 23.0944 17.9054 23.6465 16.0215 23.8171C14.1228 23.9886 11.9764 23.7812 9.84313 23.1582C9.66086 23.1051 9.50083 22.9941 9.38719 22.842C9.27355 22.6899 9.21247 22.5049 9.21316 22.3151C9.21385 22.1252 9.27628 21.9407 9.39102 21.7894C9.50577 21.6382 9.6666 21.5283 9.84926 21.4765C10.922 21.1711 11.7393 20.9077 12.4769 20.4466C11.4278 19.8901 10.6551 19.1621 10.1083 18.3326C9.34876 17.1794 9.06701 15.8931 9.01101 14.7337C8.95501 13.5744 9.12213 12.4999 9.29888 11.7255C9.39951 11.2836 9.51676 10.8409 9.67863 10.4174C9.73573 10.2681 9.83263 10.1373 9.95881 10.0392C10.085 9.94107 10.2348 9.8794 10.3935 9.86086Z" fill="white"/>
</g>
<defs>
<clipPath id="clip0_272_25981">
<rect width="21" height="21" fill="white" transform="translate(6.375 5.5)"/>
</clipPath>
</defs>
</svg>
